# xmcd CD database file
#
# Track frame offsets:
#	150
#	22010
#	27658
#	45497
#	69662
#	90250
#	104602
#	124780
#	145404
#	151687
#	198146
#	218745
#	249375
#	271697
#
# Disc length: 3895 seconds
#
# Revision: 0
# Processed by: cddbd v1.4PL0 Copyright (c) Steve Scherf et al.
# Submitted via: CDex 1.50Beta7
#
DISCID=bb0f350e
DTITLE=Coral Egan - The path of least resistance
DYEAR=2003
DGENRE=Jazz
TTITLE0=The night has a thousand eyes
TTITLE1=New light, old window (Part 1)
TTITLE2=Lonely
TTITLE3=Moondance
TTITLE4=A Felicidade
TTITLE5=Le poinconneur des lilas
TTITLE6=How deep is the ocean
TTITLE7=Insensatez
TTITLE8=New light, old windows (Part 2)
TTITLE9=Little girl blue
TTITLE10=Smile
TTITLE11=Spring can really hang you up the most
TTITLE12=One for my baby
TTITLE13=I'll remember april
EXTD=YEAR: 2003
EXTT0=
EXTT1=
EXTT2=
EXTT3=
EXTT4=
EXTT5=
EXTT6=
EXTT7=
EXTT8=
EXTT9=
EXTT10=
EXTT11=
EXTT12=
EXTT13=
PLAYORDER=
